<svg width="16" height="16" viewBox="0 0 16 16" fill="none" xmlns="http://www.w3.org/2000/svg">
<path d="M7.99101 0.0879211C3.63323 0.0879211 0.0878906 3.63326 0.0878906 7.99105C0.0878906 12.3488 3.63323 15.8942 7.99101 15.8942C12.3488 15.8942 15.8941 12.3488 15.8941 7.99105C15.8941 3.63326 12.3488 0.0879211 7.99101 0.0879211ZM9.34438 11.9572L9.25288 12.3425C9.21301 12.5108 9.08814 12.6474 8.92306 12.6987C8.34929 12.8771 7.74057 12.9203 7.14485 12.8235C6.7425 12.758 6.4694 12.3789 6.53473 11.9765L7.07337 8.66509C7.13713 8.2731 6.92989 7.90727 6.59971 7.74359C6.39335 7.64138 6.28271 7.41254 6.33593 7.18844L6.42743 6.80312C6.46729 6.63487 6.59216 6.49823 6.75725 6.44677C7.33102 6.26834 7.93973 6.22514 8.53545 6.32191C8.93781 6.38741 9.21091 6.76659 9.14557 7.16894L8.60693 10.4804C8.54318 10.8723 8.75042 11.2382 9.08059 11.4019C9.28695 11.5042 9.39742 11.7331 9.34438 11.9572ZM8.43886 5.54916C7.76481 5.54916 7.21826 5.00261 7.21826 4.32856C7.21826 3.65451 7.76481 3.10797 8.43886 3.10797C9.11291 3.10797 9.65945 3.65451 9.65945 4.32856C9.65945 5.00261 9.11291 5.54916 8.43886 5.54916Z" fill="#22C55E"/>
</svg>
