<svg width="32" height="32" viewBox="0 0 32 32" fill="none" xmlns="http://www.w3.org/2000/svg">
<path d="M17.3505 2.60785C18.769 1.88098 20.5077 2.34693 21.373 3.68556C21.9149 4.52421 22.8274 5.05092 23.8246 5.10103C25.4166 5.18092 26.6893 6.45363 26.7692 8.04559C26.8193 9.0428 27.346 9.95496 28.1846 10.4972C29.5233 11.3622 29.9892 13.1009 29.2623 14.5194C28.807 15.4082 28.807 16.4616 29.2623 17.3501C29.9892 18.7686 29.5233 20.5072 28.1846 21.3723C27.346 21.9142 26.8193 22.8267 26.7692 23.8239C26.6893 25.4158 25.4166 26.6885 23.8246 26.7684C22.8274 26.8186 21.9152 27.3453 21.373 28.1839C20.508 29.5225 18.7693 29.9885 17.3508 29.2616C16.462 28.8063 15.4086 28.8063 14.5201 29.2616C13.1016 29.9885 11.363 29.5225 10.4979 28.1839C9.95599 27.3453 9.04353 26.8186 8.04632 26.7684C6.45436 26.6885 5.18165 25.4158 5.10176 23.8239C5.05165 22.8267 4.52494 21.9145 3.68629 21.3723C2.34706 20.5075 1.88141 18.7689 2.60798 17.3504C3.0633 16.4616 3.0633 15.4082 2.60798 14.5197C1.8811 13.1012 2.34705 11.3625 3.68568 10.4975C4.52434 9.95557 5.05104 9.0431 5.10116 8.04589C5.18104 6.45394 6.45376 5.18122 8.04571 5.10134C9.04292 5.05122 9.95508 4.52452 10.4973 3.68586C11.3624 2.34724 13.101 1.88128 14.5195 2.60816C15.4083 3.06318 16.4617 3.06318 17.3505 2.60785Z" fill="#22C55E"/>
<path d="M13.4868 22.4048V16.512L21.3418 13.0007L24.2882 15.947L13.4868 22.4048Z" fill="#22C55E"/>
<path d="M13.4869 22.4048L7.58203 16.5029L10.5284 13.5535L13.4869 16.512L20.5248 9.46503L23.4712 12.4084L13.4869 22.4048Z" fill="white"/>
</svg>
